<?xml version="1.0" encoding="UTF-8"?>
<svg width="26px" height="26px" viewBox="0 0 26 26" version="1.1" xmlns="http://www.w3.org/2000/svg" xmlns:xlink="http://www.w3.org/1999/xlink">
    <!-- Generator: Sketch 57.1 (83088) - https://sketch.com -->
    <title>Shape</title>
    <desc>Created with Sketch.</desc>
    <g id="Website-Design" stroke="none" stroke-width="1" fill="none" fill-rule="evenodd" fill-opacity="0.213969624">
        <g id="Dashboard" transform="translate(-25.000000, -438.000000)" fill="#FFFFFF" fill-rule="nonzero">
            <path d="M38.325,444.533333 C34.5471932,444.533333 31.5,447.5649 31.5,451.323333 C31.5,455.081767 34.5471932,458.113333 38.325,458.113333 C42.1028068,458.113333 45.15,455.081767 45.15,451.323333 C45.15,447.5649 42.1028068,444.533333 38.325,444.533333 Z M38.325,455.526667 C36.0004016,455.526667 34.1,453.641638 34.1,451.323333 C34.1,449.005029 35.9947456,447.12 38.325,447.12 C40.6552544,447.12 42.55,449.005029 42.55,451.323333 C42.55,453.641638 40.6495984,455.526667 38.325,455.526667 L38.325,455.526667 Z M46.45,444.21 C46.45,445.108818 45.7223881,445.826667 44.825,445.826667 C43.9215485,445.826667 43.2,445.102786 43.2,444.21 C43.2,443.317214 43.9276119,442.593333 44.825,442.593333 C45.7223881,442.593333 46.45,443.317214 46.45,444.21 Z M50.9086447,445.666786 C50.810039,443.594682 50.3344116,441.759225 48.8089236,440.246993 C47.2892359,438.734761 45.4447295,438.261468 43.3624094,438.157574 C41.2162856,438.036364 34.7837144,438.036364 32.6375906,438.157574 C30.5610708,438.255696 28.7165644,438.72899 27.1910764,440.241221 C25.6655884,441.753453 25.1957613,443.58891 25.0913553,445.661014 C24.9695482,447.796608 24.9695482,454.19762 25.0913553,456.333214 C25.189961,458.405318 25.6655884,460.240775 27.1910764,461.753007 C28.7165644,463.265239 30.5552705,463.738532 32.6375906,463.842426 C34.7837144,463.963636 41.2162856,463.963636 43.3624094,463.842426 C45.4447295,463.744304 47.2892359,463.27101 48.8089236,461.753007 C50.3286113,460.240775 50.8042387,458.405318 50.9086447,456.333214 C51.0304518,454.19762 51.0304518,447.80238 50.9086447,445.666786 Z M48.1425533,458.984978 C47.6878306,460.121755 46.576433,460.997537 45.4279666,461.455728 C43.7081819,462.134314 40.2255078,461.977717 38.325,461.977717 C36.4244922,461.977717 32.3378174,462.128514 30.6238625,461.455728 C29.4812259,461.003337 28.6009294,460.127555 28.1403769,458.984978 C27.4582928,457.274013 27.6156968,453.214095 27.6156968,451.323333 C27.6156968,449.432572 27.4641226,445.366854 28.1403769,443.661689 C28.5950996,442.524912 29.4753962,441.64913 30.6238625,441.190939 C32.3436472,440.512353 36.4244922,440.66895 38.325,440.66895 C40.2255078,440.66895 44.3121826,440.518153 46.0261375,441.190939 C47.1687741,441.64333 48.0490706,442.519112 48.5096231,443.661689 C49.1917072,445.372654 49.0343032,449.432572 49.0343032,451.323333 C49.0343032,453.214095 48.8246374,457.279812 48.1425533,458.984978 Z" id="Shape"></path>
        </g>
    </g>
</svg>