<?xml version="1.0" encoding="UTF-8"?>
<svg width="26px" height="18px" viewBox="0 0 26 18" version="1.1" xmlns="http://www.w3.org/2000/svg" xmlns:xlink="http://www.w3.org/1999/xlink">
    <!-- Generator: Sketch 57.1 (83088) - https://sketch.com -->
    <title>Shape</title>
    <desc>Created with Sketch.</desc>
    <g id="Website-Design" stroke="none" stroke-width="1" fill="none" fill-rule="evenodd" fill-opacity="0.213969624">
        <g id="Dashboard" transform="translate(-25.000000, -534.000000)" fill="#FFFFFF" fill-rule="nonzero">
            <path d="M50.4567048,536.820138 C50.1576829,535.712216 49.276661,534.839652 48.1580308,534.543534 C46.1304332,534.005455 38,534.005455 38,534.005455 C38,534.005455 29.8696144,534.005455 27.8419692,534.543534 C26.723339,534.839699 25.8423171,535.712216 25.5432952,536.820138 C25,538.828311 25,543.018176 25,543.018176 C25,543.018176 25,547.208042 25.5432952,549.216215 C25.8423171,550.324137 26.723339,551.160348 27.8419692,551.456466 C29.8696144,551.994545 38,551.994545 38,551.994545 C38,551.994545 46.1303856,551.994545 48.1580308,551.456466 C49.276661,551.160348 50.1576829,550.324137 50.4567048,549.216215 C51,547.208042 51,543.018176 51,543.018176 C51,543.018176 51,538.828311 50.4567048,536.820138 Z M35.2916667,546.703636 L35.2916667,539.296364 L42.3333333,543.000091 L35.2916667,546.703636 Z" id="Shape"></path>
        </g>
    </g>
</svg>